<svg width="8" height="13" viewBox="0 0 8 13" fill="none" xmlns="http://www.w3.org/2000/svg">
<path d="M2.84959 6.79262L7.49909 11.3993C7.49909 11.3993 7.49909 11.3993 7.49909 11.3993C7.61795 11.5171 7.61775 11.7051 7.49857 11.8227L6.81431 12.4974C6.69174 12.6183 6.4907 12.6183 6.36818 12.4975L6.36817 12.4974L0.501438 6.71192L0.501422 6.71191C0.38208 6.59423 0.382053 6.40581 0.501407 6.28808C0.501412 6.28807 0.501418 6.28807 0.501423 6.28806L6.36816 0.502556L6.13952 0.270699L6.36816 0.502555C6.49074 0.381677 6.69177 0.381699 6.8143 0.50254L6.81431 0.502555L7.49857 1.17734C7.61775 1.29487 7.61795 1.48291 7.49909 1.60068L2.84959 6.20741L2.55427 6.50002L2.84959 6.79262Z" fill="white" stroke="white" stroke-width="0.823806"/>
</svg>
